<?xml version="1.0" standalone="no"?>
<!DOCTYPE svg PUBLIC "-//W3C//DTD SVG 20010904//EN"
 "http://www.w3.org/TR/2001/REC-SVG-20010904/DTD/svg10.dtd">
<svg version="1.0" xmlns="http://www.w3.org/2000/svg"
 width="1966.000000pt" height="954.000000pt" viewBox="0 0 1966.000000 954.000000"
 preserveAspectRatio="xMidYMid meet">

<g transform="translate(0.000000,954.000000) scale(0.100000,-0.100000)"
fill="#000000" stroke="none">
<path d="M12895 8433 c-77 -9 -98 -16 -129 -43 -40 -35 -54 -72 -100 -255 -34
-136 -70 -257 -152 -514 l-39 -123 -68 5 c-138 9 -280 -35 -384 -120 -105 -86
-206 -260 -262 -452 -17 -57 -31 -112 -31 -123 0 -36 -54 -183 -102 -279 -49
-99 -110 -169 -146 -169 -60 0 -79 141 -43 316 34 164 62 255 138 442 9 22
-126 16 -164 -8 -46 -28 -60 -54 -118 -223 -128 -373 -227 -550 -333 -594 -79
-33 -122 17 -122 139 0 209 176 582 351 743 101 93 206 110 274 45 40 -39 65
-35 65 9 0 25 -8 35 -43 56 -147 85 -358 32 -528 -135 -43 -43 -94 -106 -118
-147 -55 -93 -115 -247 -135 -346 -56 -274 -171 -463 -308 -507 -57 -17 -64
-4 -22 42 20 22 50 70 68 107 28 60 31 75 31 161 0 111 -16 154 -112 299 -87
132 -114 198 -120 289 -5 91 11 133 67 170 27 18 45 22 85 20 39 -2 50 0 50
12 0 28 -47 43 -109 36 -53 -7 -64 -13 -107 -56 -83 -83 -138 -216 -240 -584
-49 -174 -56 -192 -90 -226 -45 -44 -64 -104 -55 -173 6 -41 3 -55 -18 -91
-14 -24 -41 -57 -61 -75 -76 -66 -115 -25 -115 122 0 76 26 217 66 353 21 75
38 122 91 252 8 20 -115 16 -156 -6 -51 -25 -66 -52 -125 -222 -64 -186 -104
-287 -150 -378 -92 -182 -215 -276 -276 -210 -29 32 -33 57 -27 161 6 101 32
192 93 328 122 270 302 468 427 469 39 0 91 -24 110 -50 20 -29 51 -23 55 12
4 31 -39 68 -101 88 -47 15 -143 15 -199 0 -117 -32 -262 -133 -337 -234 -92
-124 -182 -346 -196 -481 -17 -166 -134 -392 -213 -412 -20 -5 -31 0 -49 21
-47 56 -24 214 91 619 44 152 56 254 32 263 -9 3 -62 -6 -118 -20 -138 -35
-257 -55 -264 -44 -3 4 10 26 29 48 41 48 77 137 77 188 -1 82 -63 162 -126
162 -56 0 -70 -30 -77 -167 -9 -184 -62 -512 -113 -698 -38 -137 -63 -210
-111 -323 -42 -99 -46 -122 -20 -122 13 0 62 78 95 150 58 130 132 393 163
584 15 91 22 96 123 96 106 0 146 -24 146 -85 0 -15 -28 -108 -62 -208 -57
-169 -62 -189 -66 -287 -3 -99 -2 -108 25 -160 34 -68 80 -100 139 -100 23 0
55 5 71 11 58 22 141 124 198 244 l29 60 8 -38 c20 -95 87 -180 152 -192 111
-21 228 84 338 305 l53 105 6 -86 c8 -95 28 -146 77 -193 32 -30 97 -44 147
-32 32 8 102 72 140 126 l28 41 31 -30 c72 -69 203 -84 326 -37 19 8 60 14 90
15 145 2 249 79 333 249 l41 84 11 -50 c15 -64 57 -135 98 -164 44 -32 119
-30 173 5 80 51 143 132 216 278 l52 104 7 -80 c8 -90 20 -126 55 -172 46 -60
117 -79 187 -49 50 20 121 107 174 211 27 53 51 89 54 82 4 -7 10 -31 14 -54
14 -89 100 -163 187 -163 127 0 215 77 305 266 24 52 48 92 52 89 5 -2 11 -25
14 -50 19 -138 116 -229 219 -206 139 32 252 206 343 531 30 107 32 143 8 138
-9 -2 -20 -16 -25 -33 -38 -125 -96 -291 -120 -344 -37 -81 -99 -173 -132
-194 -32 -21 -80 -22 -100 -1 -44 44 -42 189 7 379 114 445 428 1399 478 1450
5 5 9 17 9 27 0 18 -13 20 -85 11z m-452 -1008 c13 -13 9 -33 -38 -167 -132
-380 -223 -582 -313 -701 -148 -195 -273 -43 -193 235 99 340 330 647 488 648
23 0 48 -6 56 -15z m-2273 -469 c0 -10 20 -82 44 -160 73 -230 88 -301 88
-406 0 -100 -14 -157 -52 -211 -26 -36 -44 -36 -95 -1 -47 33 -81 88 -90 150
-9 59 -24 90 -47 97 -22 8 -22 6 3 80 12 33 24 87 29 120 4 33 26 125 49 205
55 190 50 178 61 160 6 -8 10 -23 10 -34z m-132 -693 c27 -60 52 -91 88 -114
45 -28 31 -49 -33 -49 -71 0 -112 52 -104 130 2 20 22 70 28 70 2 0 12 -17 21
-37z"/>
<path d="M4365 7413 c-84 -44 -193 -152 -259 -255 -20 -32 -42 -58 -49 -58 -7
0 -45 9 -86 20 -149 40 -283 53 -481 47 -188 -6 -306 -23 -445 -67 -451 -141
-758 -359 -898 -635 -65 -129 -79 -279 -38 -400 53 -155 147 -252 289 -299 88
-29 162 -36 248 -21 159 28 288 124 359 267 34 70 38 86 39 160 1 82 1 83 -24
86 -24 3 -26 -1 -36 -67 -30 -186 -160 -333 -327 -371 -69 -15 -194 1 -262 35
-99 48 -140 123 -152 278 -14 181 76 358 281 554 199 190 429 307 719 365 139
27 383 27 512 -1 114 -24 235 -61 235 -71 0 -4 -27 -61 -59 -127 -109 -218
-191 -430 -337 -871 -89 -268 -176 -499 -244 -647 -63 -137 -151 -285 -170
-285 -9 0 -68 16 -131 36 -63 19 -141 43 -174 54 -175 54 -403 63 -520 19 -97
-36 -179 -101 -218 -174 -33 -61 -30 -176 5 -230 36 -56 65 -80 130 -109 106
-47 217 -56 369 -30 211 36 377 120 528 264 41 39 69 59 80 56 39 -13 186 -37
306 -51 192 -21 568 -14 690 13 156 35 325 113 431 198 57 46 167 160 205 214
50 69 115 216 136 305 21 94 23 323 4 420 -19 91 -59 220 -97 307 -119 278
-348 516 -635 659 -43 22 -79 41 -79 43 0 3 8 24 19 48 58 135 88 188 137 247
30 36 53 70 51 75 -5 16 -21 16 -52 -1z m-103 -559 c171 -116 302 -243 382
-372 136 -218 215 -507 203 -746 -7 -161 -49 -280 -140 -406 -191 -264 -456
-381 -866 -381 -84 0 -179 3 -210 6 -93 10 -308 47 -322 55 -9 6 -3 22 27 64
142 202 270 466 465 956 49 124 94 234 99 245 5 11 62 153 126 315 115 291
128 320 145 320 4 0 46 -25 91 -56z m-1392 -1814 c113 -28 214 -57 224 -62 19
-10 17 -14 -29 -56 -112 -102 -258 -178 -400 -208 -199 -43 -327 15 -354 160
-12 65 2 109 48 155 88 88 197 91 511 11z"/>
<path d="M6999 6934 c-72 -45 -92 -142 -40 -195 93 -92 256 42 200 164 -21 46
-108 63 -160 31z"/>
<path d="M7822 6705 c-82 -36 -185 -179 -285 -396 l-53 -116 0 171 c1 152 -1
176 -19 211 -14 27 -28 41 -44 43 -19 3 -175 -41 -189 -54 -2 -1 6 -15 17 -31
36 -49 45 -130 26 -256 -9 -61 -21 -118 -27 -125 -6 -7 -31 -73 -55 -145 -105
-315 -228 -485 -326 -448 -14 6 -33 24 -42 40 -28 56 -22 104 55 421 110 452
111 462 70 475 -20 6 -122 -9 -178 -26 l-33 -11 22 -35 c27 -44 26 -57 -41
-378 -60 -290 -66 -371 -31 -451 12 -29 35 -64 51 -79 73 -70 214 -47 298 49
63 72 149 251 198 411 17 56 28 74 47 75 16 0 -28 -197 -90 -405 -83 -278
-249 -740 -324 -902 l-38 -83 70 0 c87 0 139 24 174 81 36 56 35 52 151 459
58 201 107 373 110 382 5 16 15 17 92 12 168 -12 274 27 392 146 128 127 218
306 260 520 55 276 -18 461 -182 460 -23 -1 -58 -7 -76 -15z m109 -142 c20
-58 15 -177 -10 -268 -46 -163 -180 -406 -295 -532 -86 -94 -197 -138 -250
-100 -16 12 -12 27 58 227 193 555 336 782 458 723 16 -8 31 -27 39 -50z"/>
<path d="M6574 6526 c-36 -16 -87 -77 -114 -138 -43 -98 -33 -243 26 -360 l24
-47 -35 -137 c-74 -287 -191 -446 -298 -405 -15 6 -32 23 -38 38 -20 52 -11
202 22 393 46 268 43 455 -8 506 -20 20 -65 15 -150 -16 l-61 -22 25 -51 c24
-48 25 -56 20 -161 -12 -215 -78 -453 -168 -602 -73 -121 -186 -205 -280 -208
-97 -3 -152 78 -157 232 -5 129 -2 137 59 157 118 40 264 140 338 232 71 89
101 156 108 240 4 60 2 72 -19 103 -35 51 -62 62 -144 56 -124 -8 -238 -83
-331 -218 -231 -335 -254 -722 -49 -842 125 -73 291 -43 421 76 68 62 121 151
171 286 20 56 38 101 39 100 1 -2 -1 -48 -5 -103 -16 -215 30 -306 154 -306
206 0 369 238 461 671 33 159 75 422 75 477 0 32 -5 45 -19 53 -24 13 -29 12
-67 -4z m-776 -286 c22 -42 10 -136 -28 -210 -45 -90 -173 -216 -262 -259 -67
-32 -98 -39 -98 -21 0 18 47 135 85 210 51 103 121 204 179 262 40 41 53 49
79 46 22 -2 36 -11 45 -28z"/>
<path d="M8550 5265 c-222 -50 -401 -204 -417 -358 -8 -76 4 -139 32 -182 l25
-36 -26 -9 c-13 -6 -37 -13 -52 -16 -15 -4 -63 -24 -108 -45 -109 -51 -211
-146 -256 -237 -30 -60 -33 -75 -33 -157 0 -71 5 -100 21 -136 93 -201 421
-260 684 -123 225 117 325 332 215 462 -27 33 -24 42 15 42 37 0 159 43 214
75 97 57 139 129 117 198 -7 19 -19 41 -28 49 -15 12 -16 10 -9 -12 21 -66 19
-86 -12 -122 -35 -39 -101 -77 -193 -112 -50 -18 -107 -28 -254 -40 -231 -20
-282 -30 -363 -68 -104 -49 -141 -127 -102 -214 33 -77 128 -164 177 -164 34
0 28 17 -15 39 -120 61 -144 164 -57 247 101 98 336 117 427 35 26 -23 32 -37
35 -82 7 -85 -25 -159 -106 -240 -161 -161 -374 -196 -500 -83 -71 64 -94 124
-94 249 0 90 3 107 32 176 53 128 168 235 272 254 23 4 39 3 44 -4 10 -17 75
-47 117 -55 46 -8 115 9 127 32 5 9 5 27 0 39 -14 38 -44 46 -144 38 -91 -7
-93 -6 -100 17 -23 71 4 185 65 273 46 67 148 153 229 193 69 34 82 37 164 37
81 0 90 -2 108 -24 25 -30 26 -56 2 -45 -31 14 -82 8 -103 -11 -23 -21 -27
-80 -6 -108 7 -9 27 -22 44 -28 88 -31 158 106 102 199 -41 66 -154 89 -290
57z m-106 -591 c25 -10 19 -33 -11 -45 -53 -20 -176 12 -158 41 7 11 144 14
169 4z"/>
<path d="M16617 5240 c-96 -17 -135 -83 -237 -400 -113 -350 -164 -517 -205
-665 -20 -71 -43 -150 -51 -175 -42 -137 -204 -723 -200 -727 10 -10 142 30
163 49 12 11 35 62 53 117 98 300 262 588 399 699 106 86 128 34 62 -147 -61
-164 -82 -255 -84 -351 -1 -70 3 -93 20 -126 42 -79 81 -100 183 -94 86 4 171
83 246 223 l47 91 14 -48 c24 -82 79 -154 134 -174 30 -12 91 -2 135 21 69 36
164 163 236 316 l31 66 8 -82 c15 -162 91 -245 207 -228 97 14 199 160 295
420 53 145 72 216 63 240 -6 17 -7 17 -26 0 -11 -10 -20 -24 -20 -31 0 -29
-85 -265 -130 -359 -51 -108 -86 -157 -131 -181 -33 -16 -62 -7 -73 23 -19 49
-18 180 3 281 26 123 81 309 116 388 14 31 23 59 21 62 -3 2 -35 5 -72 5 -110
0 -133 -26 -208 -243 -113 -327 -169 -441 -261 -536 -67 -68 -109 -85 -149
-59 -34 22 -46 58 -46 133 0 260 245 712 439 811 69 36 156 25 197 -25 18 -23
24 -24 43 -14 22 11 22 38 -1 67 -16 20 -94 52 -144 58 -153 21 -369 -92 -488
-253 -81 -110 -165 -313 -186 -447 -20 -129 -124 -352 -193 -410 -104 -90
-158 -1 -123 205 25 143 49 233 132 479 41 123 73 225 71 228 -12 12 -93 -22
-159 -67 -165 -111 -322 -276 -448 -472 -77 -122 -76 -116 71 347 43 138 99
309 125 380 25 72 50 145 56 164 19 65 117 309 148 371 17 34 30 63 28 65 -10
7 -78 11 -111 5z"/>
<path d="M15716 5120 c-16 -5 -41 -21 -56 -35 -53 -50 -80 -123 -201 -530 -16
-55 -47 -156 -69 -225 -86 -276 -161 -530 -185 -630 -56 -227 -134 -409 -206
-481 -44 -44 -76 -50 -105 -18 -17 18 -19 36 -18 138 1 99 6 135 37 253 20 75
52 179 72 230 57 146 60 132 -27 126 -121 -8 -137 -27 -216 -258 -94 -276
-175 -445 -250 -523 -105 -110 -202 -77 -202 67 1 121 41 258 125 426 66 132
119 212 196 294 121 129 221 157 304 84 59 -52 103 -14 49 43 -75 78 -248 79
-397 1 -202 -105 -370 -367 -413 -644 -34 -218 -149 -438 -230 -438 -92 0 -76
199 50 630 51 172 61 249 38 272 -7 7 -42 2 -114 -16 -134 -34 -258 -57 -269
-50 -5 3 8 28 30 57 91 123 95 250 11 321 -61 51 -124 23 -134 -58 -3 -23 -8
-86 -11 -141 -3 -55 -8 -113 -10 -130 -2 -16 -7 -52 -10 -80 -30 -226 -123
-584 -196 -750 -42 -97 -47 -125 -24 -125 32 0 128 204 179 381 23 80 61 247
86 380 10 52 13 57 42 63 59 12 142 6 178 -12 58 -29 57 -54 -17 -272 -75
-222 -90 -325 -58 -419 33 -99 109 -149 197 -129 79 17 140 83 215 230 l39 78
13 -49 c16 -64 62 -136 103 -162 65 -40 168 -10 244 72 47 52 74 94 135 212
l56 109 6 -79 c3 -44 11 -92 17 -109 18 -47 58 -93 100 -114 47 -24 109 -16
159 19 41 29 100 109 141 191 l32 64 18 -48 c44 -114 107 -153 238 -143 122 8
243 61 335 146 177 164 285 473 243 693 -25 132 -76 207 -168 248 -77 34 -208
28 -228 -10 -15 -29 14 -53 54 -44 17 4 51 7 76 6 38 0 49 -6 76 -35 88 -96
57 -351 -75 -622 -126 -257 -261 -381 -349 -320 -34 24 -56 114 -48 194 22
211 304 1127 475 1541 28 68 51 128 51 132 0 10 -97 9 -134 -2z"/>
<path d="M5460 3913 c-415 -70 -663 -180 -845 -375 -211 -228 -230 -481 -48
-648 100 -92 208 -135 553 -219 351 -87 432 -114 530 -181 115 -78 171 -166
195 -308 23 -133 1 -254 -73 -400 -175 -344 -561 -597 -1047 -688 -131 -24
-385 -25 -490 0 -303 69 -470 231 -526 511 -7 33 -12 119 -12 190 1 104 6 150
26 230 43 176 114 316 214 428 58 65 26 81 -52 27 -93 -64 -189 -191 -259
-343 -86 -184 -117 -358 -91 -509 70 -400 396 -628 899 -629 305 -1 630 80
889 219 312 168 599 475 707 755 84 215 56 409 -78 550 -121 126 -260 188
-657 292 -427 112 -547 172 -614 307 -100 200 60 434 409 601 275 131 512 152
691 61 149 -75 209 -287 107 -380 -27 -25 -81 -54 -101 -54 -20 0 -69 -48 -62
-60 29 -47 238 87 287 184 30 59 35 152 12 217 -54 149 -211 231 -438 228 -56
-1 -112 -4 -126 -6z"/>
<path d="M13029 3822 c-92 -59 -170 -172 -272 -394 l-53 -114 0 175 c1 157 -1
180 -19 216 -11 22 -28 42 -38 43 -18 4 -187 -45 -187 -54 0 -2 9 -22 21 -44
15 -29 22 -64 25 -123 3 -85 -17 -229 -35 -251 -6 -7 -31 -73 -56 -147 -84
-247 -175 -403 -253 -436 -30 -12 -37 -12 -57 1 -73 48 -35 296 109 726 36
107 66 198 66 202 0 16 -49 7 -96 -18 -169 -89 -396 -323 -538 -554 -26 -42
-27 -43 -23 -15 2 17 26 98 52 180 70 218 74 239 48 272 -15 22 -30 29 -63 31
-51 4 -93 -21 -175 -104 -72 -73 -240 -289 -296 -379 -53 -87 -79 -121 -79
-106 0 49 136 403 184 480 15 23 24 46 21 49 -17 17 -112 5 -149 -17 -72 -45
-82 -68 -256 -618 -64 -204 -101 -284 -161 -346 -38 -39 -52 -48 -75 -45 -43
5 -57 56 -51 183 8 142 74 399 133 517 35 70 34 71 -49 66 -121 -8 -141 -30
-210 -238 -109 -326 -206 -514 -301 -580 -97 -66 -156 -25 -156 111 0 127 41
262 137 449 110 215 246 360 360 384 44 10 108 -10 132 -40 24 -31 55 -28 59
4 5 31 -14 51 -73 78 -55 26 -146 31 -224 13 -113 -26 -269 -135 -344 -242
-109 -153 -197 -387 -197 -526 0 -87 -114 -278 -227 -381 -61 -55 -165 -130
-182 -130 -15 0 -15 4 19 243 79 559 133 776 214 866 l21 24 -62 -7 c-93 -10
-158 -32 -176 -60 -9 -13 -39 -99 -67 -191 -73 -241 -141 -419 -222 -585 -58
-118 -82 -156 -129 -202 -37 -38 -66 -58 -81 -58 -69 0 -100 85 -78 217 20
129 143 553 189 659 10 22 32 60 50 84 17 24 29 45 27 47 -2 2 -48 -4 -102
-14 -146 -26 -149 -29 -219 -273 -30 -107 -62 -206 -69 -220 -7 -14 -37 -95
-65 -180 -99 -293 -197 -440 -269 -401 -28 15 -43 117 -31 220 15 136 87 389
139 491 11 21 20 42 20 46 0 3 -36 4 -81 2 -79 -3 -81 -4 -118 -43 -28 -31
-45 -66 -75 -155 -118 -354 -212 -541 -308 -613 -72 -54 -116 -48 -148 19 -20
40 -22 55 -16 120 30 334 336 804 522 804 46 0 86 -17 110 -46 27 -33 64 -26
64 12 0 37 -66 80 -145 93 -141 25 -294 -38 -436 -179 -79 -78 -91 -96 -152
-220 -77 -158 -107 -266 -109 -396 -4 -263 118 -399 282 -314 69 36 141 128
216 277 29 57 55 99 59 93 3 -5 4 -19 0 -29 -10 -33 15 -148 42 -188 40 -62
69 -78 139 -78 53 0 65 4 102 33 69 55 173 236 222 385 18 56 21 41 4 -28 -26
-113 -12 -192 46 -258 l38 -42 83 0 c81 0 86 2 141 38 99 67 173 182 264 414
26 65 49 120 52 123 19 18 -30 -308 -74 -488 -36 -151 -43 -164 -100 -186 -27
-11 -91 -39 -142 -63 -51 -24 -95 -43 -97 -43 -17 0 -280 -139 -348 -184 -92
-60 -205 -169 -241 -231 -88 -151 -68 -323 44 -383 41 -22 53 -23 150 -19 82
3 120 10 174 31 249 96 462 364 630 796 l44 115 114 77 c155 106 255 207 310
313 l43 84 28 -62 c69 -152 169 -178 298 -77 47 38 126 155 177 261 20 43 40
79 43 79 4 0 9 -35 11 -77 5 -86 27 -140 75 -185 70 -66 155 -56 239 30 l37
37 -7 -39 c-6 -32 -5 -38 8 -33 8 3 34 11 58 17 68 17 98 31 108 51 6 10 30
75 55 145 55 155 141 330 220 449 68 102 192 235 218 235 29 0 21 -72 -34
-286 -79 -305 -78 -428 1 -486 36 -26 56 -15 64 35 27 169 227 581 345 711 47
52 122 106 147 106 47 0 44 -25 -31 -240 -20 -58 -43 -136 -51 -173 -48 -227
34 -369 197 -343 137 22 238 155 330 433 39 117 60 155 77 139 5 -6 -24 -176
-38 -221 -6 -16 -31 -100 -56 -185 -42 -143 -118 -373 -164 -495 -10 -27 -35
-95 -55 -150 -20 -55 -40 -109 -45 -120 -14 -33 -81 -189 -87 -202 -4 -10 14
-13 69 -13 61 0 81 4 109 23 69 46 84 83 189 448 146 510 130 464 171 462 206
-11 292 13 421 120 50 40 139 159 178 236 95 188 140 426 111 582 -30 159
-164 235 -282 161z m98 -87 c29 -21 47 -111 39 -197 -22 -238 -265 -654 -429
-736 -67 -33 -147 -29 -147 8 0 16 60 194 140 415 12 33 47 116 78 184 121
269 235 385 319 326z m-4340 -1297 c-3 -8 -6 -5 -6 6 -1 11 2 17 5 13 3 -3 4
-12 1 -19z m412 -640 c-55 -148 -244 -424 -377 -549 -94 -89 -169 -135 -242
-149 -68 -13 -112 -5 -142 27 -20 22 -23 35 -23 106 0 72 4 88 30 136 72 131
205 233 470 361 233 112 298 141 304 134 2 -2 -7 -31 -20 -66z"/>
<path d="M7502 2901 c-36 -10 -93 -71 -120 -131 -20 -42 -27 -76 -30 -140 -3
-79 -1 -91 29 -160 25 -57 33 -88 32 -130 -2 -114 -100 -367 -177 -457 -70
-81 -177 -112 -219 -65 -28 31 -40 135 -27 231 30 230 135 573 207 678 23 34
39 64 35 67 -14 8 -189 -31 -215 -49 -29 -18 -27 -14 -136 -383 -97 -329 -188
-539 -268 -619 -45 -45 -84 -55 -115 -30 -46 37 -50 174 -9 327 99 368 145
503 206 605 19 30 30 57 27 59 -11 6 -185 -29 -210 -43 -12 -6 -28 -24 -36
-39 -13 -26 -156 -496 -156 -514 0 -5 7 -16 15 -24 8 -8 12 -20 10 -27 -19
-56 -45 -196 -45 -243 1 -141 91 -221 218 -193 96 20 182 121 264 309 23 55
46 100 49 100 3 0 9 -30 12 -67 12 -138 72 -234 154 -247 46 -8 119 7 176 35
95 49 200 202 261 380 51 151 121 528 128 692 3 50 0 61 -17 72 -11 7 -30 10
-43 6z"/>
</g>
</svg>
